<svg version="1.1" id="Layer_1" xmlns="http://www.w3.org/2000/svg" xmlns:xlink="http://www.w3.org/1999/xlink" x="0px" y="0px"
	 width="100%" viewBox="0 0 512 512" enable-background="new 0 0 512 512" xml:space="preserve">
<path fill="#000000" opacity="0.000000" stroke="none" 
	d="
M345.000000,513.000000 
	C230.027939,513.000000 115.555870,513.000000 1.041900,513.000000 
	C1.041900,342.402924 1.041900,171.805817 1.041900,1.104355 
	C171.555405,1.104355 342.110901,1.104355 512.833191,1.104355 
	C512.833191,171.666534 512.833191,342.333252 512.833191,513.000000 
	C457.139069,513.000000 401.319550,513.000000 345.000000,513.000000 
M286.467896,500.022217 
	C291.014404,495.525665 296.409302,491.604034 299.928314,486.411194 
	C306.941223,476.062592 312.902893,465.003204 319.336121,454.259766 
	C330.531830,435.562988 341.643616,416.814514 353.012207,398.223236 
	C359.298828,387.942535 363.997467,376.313080 373.910034,368.814789 
	C381.400024,363.148987 389.704803,358.534454 397.779510,353.672119 
	C424.809631,337.395325 451.851501,321.136780 478.996216,305.052490 
	C486.742249,300.462646 493.791199,295.148163 498.979889,287.795258 
	C507.205444,276.138885 510.565308,263.362396 508.119659,248.951416 
	C505.785370,235.196777 499.814056,223.841766 488.360718,215.878845 
	C480.897186,210.689819 472.896698,206.267822 465.095154,201.571259 
	C439.876892,186.389755 414.720337,171.103012 389.370117,156.144745 
	C379.007111,150.029892 369.037476,143.831055 362.917511,132.868530 
	C356.418518,121.227196 349.536926,109.796860 342.702087,98.346222 
	C330.529236,77.952766 318.207397,57.648125 306.069580,37.233974 
	C301.355591,29.305721 296.505371,21.601349 288.931091,15.959816 
	C278.325928,8.060792 266.430450,5.119597 253.388107,5.987375 
	C236.079025,7.139041 222.435547,14.792666 213.264923,29.484127 
	C203.109238,45.753700 193.494858,62.361641 183.676804,78.841331 
	C174.853592,93.651176 165.898468,108.386444 157.329712,123.342636 
	C150.325974,135.567169 142.196350,146.144608 129.465530,153.443314 
	C98.006020,171.479370 67.069672,190.428131 35.928963,209.019943 
	C27.902967,213.811661 20.289261,219.026642 14.956831,227.033737 
	C8.075066,237.367294 5.230751,248.588776 5.933919,260.983643 
	C6.847473,277.087036 13.625546,289.971832 26.711878,299.142151 
	C34.817631,304.822266 43.612522,309.521942 52.120060,314.625122 
	C77.079002,329.596558 101.922943,344.766022 127.071800,359.411682 
	C138.358688,365.984680 147.814758,373.885590 154.026505,385.623810 
	C159.115677,395.240784 164.854004,404.519226 170.435684,413.869476 
	C184.268066,437.041260 198.083359,460.224152 212.084076,483.294189 
	C221.998367,499.630707 236.864258,508.009827 255.804398,508.934235 
	C266.673431,509.464722 276.765472,506.451599 286.467896,500.022217 
z"/>
<path fill="#0EA5E9" opacity="1.000000" stroke="none" 
	d="
M286.207123,500.281311 
	C276.765472,506.451599 266.673431,509.464722 255.804398,508.934235 
	C236.864258,508.009827 221.998367,499.630707 212.084076,483.294189 
	C198.083359,460.224152 184.268066,437.041260 170.435684,413.869476 
	C164.854004,404.519226 159.115677,395.240784 154.026505,385.623810 
	C147.814758,373.885590 138.358688,365.984680 127.071800,359.411682 
	C101.922943,344.766022 77.079002,329.596558 52.120060,314.625122 
	C43.612522,309.521942 34.817631,304.822266 26.711878,299.142151 
	C13.625546,289.971832 6.847473,277.087036 5.933919,260.983643 
	C5.230751,248.588776 8.075066,237.367294 14.956831,227.033737 
	C20.289261,219.026642 27.902967,213.811661 35.928963,209.019943 
	C67.069672,190.428131 98.006020,171.479370 129.465530,153.443314 
	C142.196350,146.144608 150.325974,135.567169 157.329712,123.342636 
	C165.898468,108.386444 174.853592,93.651176 183.676804,78.841331 
	C193.494858,62.361641 203.109238,45.753700 213.264923,29.484127 
	C222.435547,14.792666 236.079025,7.139041 253.388107,5.987375 
	C266.430450,5.119597 278.325928,8.060792 288.931091,15.959816 
	C296.505371,21.601349 301.355591,29.305721 306.069580,37.233974 
	C318.207397,57.648125 330.529236,77.952766 342.702087,98.346222 
	C349.536926,109.796860 356.418518,121.227196 362.917511,132.868530 
	C369.037476,143.831055 379.007111,150.029892 389.370117,156.144745 
	C414.720337,171.103012 439.876892,186.389755 465.095154,201.571259 
	C472.896698,206.267822 480.897186,210.689819 488.360718,215.878845 
	C499.814056,223.841766 505.785370,235.196777 508.119659,248.951416 
	C510.565308,263.362396 507.205444,276.138885 498.979889,287.795258 
	C493.791199,295.148163 486.742249,300.462646 478.996216,305.052490 
	C451.851501,321.136780 424.809631,337.395325 397.779510,353.672119 
	C389.704803,358.534454 381.400024,363.148987 373.910034,368.814789 
	C363.997467,376.313080 359.298828,387.942535 353.012207,398.223236 
	C341.643616,416.814514 330.531830,435.562988 319.336121,454.259766 
	C312.902893,465.003204 306.941223,476.062592 299.928314,486.411194 
	C296.409302,491.604034 291.014404,495.525665 286.207123,500.281311 
M187.973022,323.460846 
	C196.639130,333.133148 207.785034,336.948853 220.428177,336.980988 
	C245.412292,337.044464 270.397369,337.106995 295.380554,336.942810 
	C304.398193,336.883575 312.766052,333.963806 319.907990,328.499786 
	C330.795868,320.169891 335.852478,308.516632 335.882690,295.141724 
	C335.942719,268.564026 335.449402,241.982697 334.964447,215.406891 
	C334.593872,195.098206 315.587830,178.825226 296.277710,178.956253 
	C270.295258,179.132568 244.310638,178.964569 218.327255,179.044830 
	C215.077438,179.054871 211.768158,179.387634 208.590820,180.062393 
	C190.628403,183.877106 177.539001,201.594482 177.872070,218.506287 
	C178.367203,243.647369 178.318420,268.811310 177.853973,293.953522 
	C177.649673,305.013428 180.589340,314.501221 187.973022,323.460846 
z"/>
<path fill="#000000" opacity="0.000000" stroke="none" 
	d="
M187.710190,323.211243 
	C180.589340,314.501221 177.649673,305.013428 177.853973,293.953522 
	C178.318420,268.811310 178.367203,243.647369 177.872070,218.506287 
	C177.539001,201.594482 190.628403,183.877106 208.590820,180.062393 
	C211.768158,179.387634 215.077438,179.054871 218.327255,179.044830 
	C244.310638,178.964569 270.295258,179.132568 296.277710,178.956253 
	C315.587830,178.825226 334.593872,195.098206 334.964447,215.406891 
	C335.449402,241.982697 335.942719,268.564026 335.882690,295.141724 
	C335.852478,308.516632 330.795868,320.169891 319.907990,328.499786 
	C312.766052,333.963806 304.398193,336.883575 295.380554,336.942810 
	C270.397369,337.106995 245.412292,337.044464 220.428177,336.980988 
	C207.785034,336.948853 196.639130,333.133148 187.710190,323.211243 
z"/>
</svg>