<svg xmlns="http://www.w3.org/2000/svg" viewBox="0 0 128 128"><defs><style>.cls-1{opacity:0;}.cls-2{fill:#1a1a1a;}.cls-3{fill:#882924;}.cls-4{fill:#b03628;}.cls-5{fill:#d16647;}.cls-6{fill:#eda379;}</style></defs><title>diamond-bronze-2</title><g id="Layer_2" data-name="Layer 2"><g id="Diamond"><g class="cls-1"><rect class="cls-2" width="128" height="128"/></g><path class="cls-2" d="M64,108.5a5.65,5.65,0,0,1-4-1.66L47.29,94.11a6,6,0,0,1-1.75-4.24V77.35l-6.09-6.08a5.65,5.65,0,0,1-1.66-4v-6.5a5.78,5.78,0,0,1,.41-2.14,5.68,5.68,0,0,1,1.25-1.88L60,36.16a5.5,5.5,0,0,1,1.88-1.24,5.64,5.64,0,0,1,4.27,0,5.5,5.5,0,0,1,1.88,1.24L88.62,56.73a5.75,5.75,0,0,1,1.56,2.93,5.67,5.67,0,0,1,.1,1.09v6.5a5.65,5.65,0,0,1-1.66,4l-6.08,6.08V89.87a6,6,0,0,1-1.76,4.24L68.05,106.84A5.64,5.64,0,0,1,64,108.5Z"/><path class="cls-2" d="M64,36.5a3.65,3.65,0,0,1,1.38.27,3.72,3.72,0,0,1,1.22.81L87.21,58.14a3.8,3.8,0,0,1,1,1.9,4.25,4.25,0,0,1,.06.71v6.5a3.72,3.72,0,0,1-1.07,2.61l-6.67,6.67V89.87a4,4,0,0,1-1.18,2.83L66.64,105.42a3.68,3.68,0,0,1-5.21,0L48.71,92.7a4,4,0,0,1-1.17-2.83V76.53l-6.67-6.67a3.69,3.69,0,0,1-1.08-2.61v-6.5a3.68,3.68,0,0,1,1.08-2.61L61.43,37.58a3.72,3.72,0,0,1,1.22-.81A3.66,3.66,0,0,1,64,36.5m0-4a7.67,7.67,0,0,0-5.44,2.25L38,55.32a7.62,7.62,0,0,0-2.25,5.43v6.5A7.63,7.63,0,0,0,38,72.68l5.5,5.5V89.87a7.94,7.94,0,0,0,2.34,5.65L58.6,108.25a7.69,7.69,0,0,0,10.87,0L82.19,95.53a8,8,0,0,0,2.35-5.66V78.18L90,72.68a7.63,7.63,0,0,0,2.25-5.43v-6.5a7.32,7.32,0,0,0-.14-1.47,7.6,7.6,0,0,0-2.11-4L69.47,34.75A7.67,7.67,0,0,0,64,32.5Z"/><path class="cls-3" d="M47.54,75V89.87a4,4,0,0,0,1.17,2.83l12.72,12.72a3.68,3.68,0,0,0,5.21,0L79.36,92.7a4,4,0,0,0,1.18-2.83V75Z"/><path class="cls-4" d="M87.21,58.14,66.64,37.58a3.68,3.68,0,0,0-5.21,0L40.87,58.14a3.69,3.69,0,0,0-1.08,2.61v6.5a3.69,3.69,0,0,0,1.08,2.61L61.43,90.42a3.68,3.68,0,0,0,5.21,0L87.21,69.86a3.72,3.72,0,0,0,1.07-2.61v-6.5A3.72,3.72,0,0,0,87.21,58.14Z"/><rect class="cls-5" x="45.81" y="42.52" width="36.45" height="36.45" rx="3.68" transform="translate(-24.2 63.07) rotate(-45)"/><rect class="cls-6" x="52.41" y="49.12" width="23.26" height="23.26" rx="1.72" transform="translate(-24.2 63.07) rotate(-45)"/></g></g></svg>