<svg xmlns="http://www.w3.org/2000/svg" viewBox="0 0 128 128"><defs><style>.cls-1{opacity:0;}.cls-2{fill:#1a1a1a;}.cls-3{fill:#e62e49;}.cls-4{fill:#fff;}.cls-5{fill:#a72d3e;}.cls-6{fill:#c62d43;}</style></defs><title>diamond-ruby-3</title><g id="Layer_2" data-name="Layer 2"><g id="Diamond"><g class="cls-1"><rect class="cls-2" width="128" height="128"/></g><path class="cls-2" d="M64,108.5a5.67,5.67,0,0,1-4-1.66L47.26,94.11a5.93,5.93,0,0,1-1.76-4.24V87a13.09,13.09,0,0,1-2.26.25A3.07,3.07,0,0,1,41,86.51c-1.92-1.92.5-9,1.68-12l-3.25-3.25a5.62,5.62,0,0,1-1.67-4v-6.5a5.59,5.59,0,0,1,.42-2.14,5.68,5.68,0,0,1,1.25-1.88l3.13-3.13c-1.13-3-3.47-9.85-1.56-11.75a3.05,3.05,0,0,1,2.26-.78c2.21,0,6.75,1.26,9.51,2.32L60,36.16a5.71,5.71,0,0,1,8,0l7.22,7.23c2.76-1.06,7.3-2.32,9.51-2.32a3.05,3.05,0,0,1,2.26.78c1.91,1.9-.43,8.8-1.56,11.75l3.13,3.13a5.57,5.57,0,0,1,1.56,2.93,5.68,5.68,0,0,1,.11,1.09v6.5a5.62,5.62,0,0,1-1.67,4l-3.25,3.25c1.18,3,3.6,10.07,1.68,12a3.07,3.07,0,0,1-2.25.77h0A13.09,13.09,0,0,1,82.5,87v2.84a5.93,5.93,0,0,1-1.76,4.24L68,106.84A5.67,5.67,0,0,1,64,108.5Z"/><path class="cls-2" d="M64,36.5a3.74,3.74,0,0,1,1.39.27,3.68,3.68,0,0,1,1.21.81l8.17,8.17c2.19-1,7.78-2.68,10-2.68a1.31,1.31,0,0,1,.85.19c.82.83-1.25,8.23-2.49,10.82l4.06,4.06a3.65,3.65,0,0,1,1,1.9,3.42,3.42,0,0,1,.07.71v6.5a3.69,3.69,0,0,1-1.08,2.61L83,74c1.21,2.32,3.46,10.2,2.61,11.06a1.3,1.3,0,0,1-.84.18,20.53,20.53,0,0,1-4.26-.74v5.33a4,4,0,0,1-1.17,2.83L66.6,105.42a3.67,3.67,0,0,1-5.2,0L48.67,92.7a4,4,0,0,1-1.17-2.83V84.54a20.53,20.53,0,0,1-4.26.74,1.3,1.3,0,0,1-.84-.18C41.55,84.24,43.8,76.36,45,74l-4.18-4.18a3.69,3.69,0,0,1-1.08-2.61v-6.5a3.68,3.68,0,0,1,1.08-2.61l4.06-4.06c-1.24-2.59-3.31-10-2.49-10.82a1.31,1.31,0,0,1,.85-.19c2.2,0,7.79,1.64,10,2.68l8.17-8.17a3.68,3.68,0,0,1,1.21-.81A3.74,3.74,0,0,1,64,36.5m0-4a7.62,7.62,0,0,0-5.43,2.25l-6.32,6.32a34.51,34.51,0,0,0-9-2,5,5,0,0,0-3.67,1.36C37.76,42.25,38,45,39,49c.31,1.23.75,2.74,1.22,4.12L38,55.32a7.74,7.74,0,0,0-2.25,5.43v6.5A7.63,7.63,0,0,0,38,72.68L40.31,75c-.5,1.41-.94,2.93-1.25,4.14-1.1,4.27-1.34,6.94.52,8.79a4.93,4.93,0,0,0,3.66,1.36h.26v.59a7.94,7.94,0,0,0,2.34,5.65l12.73,12.73a7.68,7.68,0,0,0,10.86,0L82.16,95.53a8,8,0,0,0,2.34-5.66v-.59h.26a4.93,4.93,0,0,0,3.66-1.36c1.86-1.85,1.62-4.52.52-8.79-.31-1.21-.75-2.73-1.25-4.14L90,72.68a7.63,7.63,0,0,0,2.25-5.43v-6.5a8.13,8.13,0,0,0-.14-1.47,7.6,7.6,0,0,0-2.11-4L87.79,53.1c.47-1.38.91-2.89,1.22-4.12,1-4,1.23-6.73-.59-8.55a5,5,0,0,0-3.67-1.36,34.51,34.51,0,0,0-9,2l-6.32-6.32A7.62,7.62,0,0,0,64,32.5Z"/><path class="cls-3" d="M45.38,54.89c-1.05-1-3.92-10.68-3-11.63S53,45.19,54,46.24s0,3.83-2.43,6.21S46.42,55.93,45.38,54.89Z"/><path class="cls-3" d="M74,46.24c1-1.05,10.68-3.93,11.63-3s-1.93,10.58-3,11.63-3.83,0-6.22-2.44S72.93,47.28,74,46.24Z"/><path class="cls-4" d="M47.5,75V89.87a4,4,0,0,0,1.17,2.83L61.4,105.42a3.67,3.67,0,0,0,5.2,0L79.33,92.7a4,4,0,0,0,1.17-2.83V75Z"/><path class="cls-5" d="M87.17,58.14,66.6,37.58a3.67,3.67,0,0,0-5.2,0L40.83,58.14a3.69,3.69,0,0,0-1.08,2.61v6.5a3.69,3.69,0,0,0,1.08,2.61L61.4,90.42a3.67,3.67,0,0,0,5.2,0L87.17,69.86a3.69,3.69,0,0,0,1.08-2.61v-6.5A3.69,3.69,0,0,0,87.17,58.14Z"/><rect class="cls-3" x="45.78" y="42.52" width="36.45" height="36.45" rx="3.68" transform="translate(-24.21 63.05) rotate(-45)"/><rect class="cls-6" x="52.37" y="49.12" width="23.26" height="23.26" rx="1.72" transform="translate(-24.21 63.05) rotate(-45)"/><path class="cls-3" d="M82.62,73.47c1,1,3.92,10.68,3,11.63S75,83.17,74,82.12s0-3.83,2.43-6.22S81.58,72.43,82.62,73.47Z"/><path class="cls-3" d="M54,82.12c-1.05,1-10.68,3.92-11.63,3s1.93-10.58,3-11.63,3.83,0,6.22,2.43S55.07,81.08,54,82.12Z"/></g></g></svg>