<svg xmlns="http://www.w3.org/2000/svg" viewBox="0 0 128 128"><defs><style>.cls-1{opacity:0;}.cls-2{fill:#1a1a1a;}.cls-3{fill:#cef;}.cls-4{fill:#fff;}.cls-5{fill:#e62e49;}.cls-6{fill:#ff7a6e;}.cls-7{fill:#a72d3e;}</style></defs><title>diamond-ruby-7</title><g id="Layer_2" data-name="Layer 2"><g id="Diamond"><g class="cls-1"><rect class="cls-2" width="128" height="128"/></g><path class="cls-2" d="M64,108.5a5.67,5.67,0,0,1-4-1.66L47.26,94.11a5.93,5.93,0,0,1-1.76-4.24V87a13.09,13.09,0,0,1-2.26.25A3.07,3.07,0,0,1,41,86.51c-.52-.52-1.26-1.26-.33-5.51h-.5a5,5,0,0,1-4.74-3.42L32.89,70H31.5a5,5,0,0,1-4.75-3.42L22,52.27A4,4,0,0,1,25.77,47H40.58c-.75-3.58-.24-4.5.41-5.15a3.05,3.05,0,0,1,2.26-.78c2.21,0,6.75,1.26,9.51,2.32L60,36.16a5.71,5.71,0,0,1,8,0l7.22,7.23c2.76-1.06,7.3-2.32,9.51-2.32a3.05,3.05,0,0,1,2.26.78c.65.65,1.16,1.57.41,5.15h14.81A4,4,0,0,1,106,52.27l-4.77,14.31A5,5,0,0,1,96.5,70H95.11l-2.53,7.58A5,5,0,0,1,87.84,81h-.5c.93,4.25.19,5-.33,5.51a3.07,3.07,0,0,1-2.25.77A13.09,13.09,0,0,1,82.5,87v2.84a5.93,5.93,0,0,1-1.76,4.24L68,106.84A5.67,5.67,0,0,1,64,108.5Z"/><path class="cls-2" d="M64,36.5a3.74,3.74,0,0,1,1.39.27,3.68,3.68,0,0,1,1.21.81l8.17,8.17c2.19-1,7.78-2.68,10-2.68a1.31,1.31,0,0,1,.85.19c.47.47,0,3.1-.73,5.74h17.36a2,2,0,0,1,1.89,2.63L99.35,66a3,3,0,0,1-2.85,2H93.67l-3,9a3,3,0,0,1-2.84,2H84.76c.78,2.76,1.33,5.6.84,6.1a1.3,1.3,0,0,1-.84.18,20.53,20.53,0,0,1-4.26-.74v5.33a4,4,0,0,1-1.17,2.83L72,100l-5.4,5.39a3.67,3.67,0,0,1-5.2,0L56,100,48.67,92.7a4,4,0,0,1-1.17-2.83V84.54a20.53,20.53,0,0,1-4.26.74,1.3,1.3,0,0,1-.84-.18c-.49-.5.06-3.34.84-6.1H40.16a3,3,0,0,1-2.84-2l-3-9H31.5a3,3,0,0,1-2.85-2L23.88,51.63A2,2,0,0,1,25.77,49H43.13c-.72-2.64-1.2-5.27-.73-5.74a1.31,1.31,0,0,1,.85-.19c2.2,0,7.79,1.64,10,2.68l8.17-8.17a3.68,3.68,0,0,1,1.21-.81A3.74,3.74,0,0,1,64,36.5m0-4a7.62,7.62,0,0,0-5.43,2.25l-6.32,6.32a34.51,34.51,0,0,0-9-2,5,5,0,0,0-3.67,1.36c-1.07,1.07-1.51,2.41-1.33,4.57H25.77a6,6,0,0,0-5.69,7.9l4.77,14.31A7,7,0,0,0,31.45,72l2.07,6.21a7,7,0,0,0,4.79,4.54c-.31,2.52.11,4,1.27,5.17a4.93,4.93,0,0,0,3.66,1.36h.26v.59a7.94,7.94,0,0,0,2.34,5.65l7.33,7.33,5.4,5.4a7.68,7.68,0,0,0,10.86,0l5.4-5.4,7.33-7.32a8,8,0,0,0,2.34-5.66v-.59h.26a4.93,4.93,0,0,0,3.66-1.36c1.16-1.15,1.58-2.65,1.27-5.17a7,7,0,0,0,4.79-4.54L96.55,72a7,7,0,0,0,6.6-4.79l4.77-14.31a6,6,0,0,0-5.69-7.9H89.75c.18-2.16-.26-3.5-1.33-4.57a5,5,0,0,0-3.67-1.36,34.51,34.51,0,0,0-9,2l-6.32-6.32A7.62,7.62,0,0,0,64,32.5Z"/><path class="cls-3" d="M90.68,77l3-9H34.33l3,9a3,3,0,0,0,2.84,2H87.84A3,3,0,0,0,90.68,77Z"/><path class="cls-4" d="M102.23,49H25.77a2,2,0,0,0-1.89,2.63L28.65,66a3,3,0,0,0,2.85,2h65a3,3,0,0,0,2.85-2l4.77-14.32A2,2,0,0,0,102.23,49Z"/><path class="cls-4" d="M45.38,54.89c-1.05-1-3.92-10.68-3-11.63S53,45.19,54,46.24s0,3.83-2.43,6.21S46.42,55.93,45.38,54.89Z"/><path class="cls-4" d="M74,46.24c1-1.05,10.68-3.93,11.63-3s-1.93,10.58-3,11.63-3.83,0-6.22-2.44S72.93,47.28,74,46.24Z"/><path class="cls-5" d="M47.5,75V89.87a4,4,0,0,0,1.17,2.83L61.4,105.42a3.67,3.67,0,0,0,5.2,0L79.33,92.7a4,4,0,0,0,1.17-2.83V75Z"/><path class="cls-6" d="M72,75H56v25l5.4,5.39a3.67,3.67,0,0,0,5.2,0L72,100Z"/><path class="cls-7" d="M87.17,58.14,66.6,37.58a3.67,3.67,0,0,0-5.2,0L40.83,58.14a3.69,3.69,0,0,0-1.08,2.61v6.5a3.69,3.69,0,0,0,1.08,2.61L61.4,90.42a3.67,3.67,0,0,0,5.2,0L87.17,69.86a3.69,3.69,0,0,0,1.08-2.61v-6.5A3.69,3.69,0,0,0,87.17,58.14Z"/><rect class="cls-5" x="45.78" y="42.52" width="36.45" height="36.45" rx="3.68" transform="translate(-24.21 63.05) rotate(-45)"/><path class="cls-4" d="M82.62,73.47c1,1,3.92,10.68,3,11.63S75,83.17,74,82.12s0-3.83,2.43-6.22S81.58,72.43,82.62,73.47Z"/><path class="cls-4" d="M54,82.12c-1.05,1-10.68,3.92-11.63,3s1.93-10.58,3-11.63,3.83,0,6.22,2.43S55.07,81.08,54,82.12Z"/><polygon class="cls-4" points="68.61 56.14 78.75 60.75 68.61 65.36 64 75.5 59.39 65.36 49.25 60.75 59.39 56.14 64 45.99 68.61 56.14"/></g></g></svg>