<svg xmlns="http://www.w3.org/2000/svg" viewBox="0 0 128 128"><defs><style>.cls-1{opacity:0;}.cls-2{fill:#1a1a1a;}.cls-3{fill:#fc9504;}.cls-4{fill:#fec92b;}.cls-5{fill:#fee854;}.cls-6{fill:#bafff3;}.cls-7{fill:#fff;}.cls-8{fill:#4783eb;}.cls-9{fill:#00138f;}.cls-10{fill:#1251bd;}.cls-11{fill:#73f0d9;}</style></defs><title>diamond-sapphire-12</title><g id="Layer_2" data-name="Layer 2"><g id="Diamond"><g class="cls-1"><rect class="cls-2" width="128" height="128"/></g><path class="cls-2" d="M64,121.47a4,4,0,0,1-2.83-1.17l-6.5-6.5a5,5,0,0,1-1.46-3.53V106a3.89,3.89,0,0,1-1.8.44,4,4,0,0,1-4-4V88.61c-4.46,2.59-10,5.55-11.77,5.55A2.24,2.24,0,0,1,34,93.51c-1-1-1.8-1.8,4.53-12.78a5,5,0,0,1-3.1-3.15L32.89,70h-1.8a5,5,0,0,1-4.36-2.55L13.42,45.83a4,4,0,0,1,3.44-6,4.13,4.13,0,0,1,.78.08l18.61,3.65c-3.82-7.11-3.2-7.73-2.26-8.67a2.24,2.24,0,0,1,1.64-.65c2.67,0,13.42,6.46,17.38,8.94l7-7a5.71,5.71,0,0,1,8,0l7,7c4-2.48,14.71-8.94,17.38-8.94a2.24,2.24,0,0,1,1.64.65c.94.94,1.56,1.56-2.26,8.67l18.61-3.65a4.13,4.13,0,0,1,.78-.08,4,4,0,0,1,3.44,2,4,4,0,0,1,0,4L101.23,67.52A5,5,0,0,1,96.91,70h-1.8l-2.53,7.58a5,5,0,0,1-3.1,3.15C95.81,91.71,95,92.51,94,93.51a2.24,2.24,0,0,1-1.64.65c-1.8,0-7.31-3-11.77-5.55v13.8a4,4,0,0,1-4,4,3.89,3.89,0,0,1-1.8-.44v4.29a5,5,0,0,1-1.46,3.53l-6.5,6.5A4,4,0,0,1,64,121.47Z"/><path class="cls-2" d="M35.63,36.2c2,0,14.39,7.26,17.66,9.48l8.11-8.1a3.68,3.68,0,0,1,1.21-.81,3.71,3.71,0,0,1,2.78,0,3.68,3.68,0,0,1,1.21.81l8.11,8.1C78,43.46,90.39,36.2,92.37,36.2a.35.35,0,0,1,.23.06c.5.5-2,5.4-4.68,10.05l22.82-4.48a2.85,2.85,0,0,1,.41,0,2,2,0,0,1,1.72,3L99.53,66.47A3,3,0,0,1,96.91,68H93.67l-3,9a3,3,0,0,1-2.84,2H86.15c3.13,5.28,7.06,12.48,6.45,13.1a.35.35,0,0,1-.23.06c-1.48,0-8.81-4.07-13.77-7v17.3a2,2,0,0,1-2,2,2,2,0,0,1-1.21-.41l-2.59-2v8.26a3,3,0,0,1-.87,2.12l-6.51,6.5a2,2,0,0,1-2.82,0l-6.51-6.5a3,3,0,0,1-.87-2.12V102l-2.59,2a2,2,0,0,1-1.21.41,2,2,0,0,1-2-2V85.11c-5,3-12.29,7-13.77,7a.35.35,0,0,1-.23-.06c-.61-.62,3.32-7.82,6.45-13.1H40.16a3,3,0,0,1-2.84-2l-3-9H31.09a3,3,0,0,1-2.62-1.53L15.13,44.78a2,2,0,0,1,1.72-3,2.85,2.85,0,0,1,.41,0l22.82,4.48c-2.65-4.65-5.18-9.55-4.68-10.05a.35.35,0,0,1,.23-.06m0-4a4.28,4.28,0,0,0-3.05,1.23c-2.15,2.15-1.08,5,.05,7.34L18,37.91a5.91,5.91,0,0,0-1.18-.12,6,6,0,0,0-5.16,3,5.93,5.93,0,0,0,0,6l.08.13L25,68.52A7,7,0,0,0,31.09,72h.36l2.07,6.21a6.92,6.92,0,0,0,2.29,3.27c-.81,1.46-1.55,2.82-2.15,4-1.91,3.74-3.56,7-1.08,9.44a4.25,4.25,0,0,0,3.05,1.24c.76,0,2.36,0,9.77-4.11v10.36a6,6,0,0,0,5.81,6v1.86a6.94,6.94,0,0,0,2,5l6.5,6.5a6,6,0,0,0,8.48,0l6.5-6.5a6.94,6.94,0,0,0,2.05-5v-1.86a6,6,0,0,0,5.81-6V92.05c7.41,4.11,9,4.11,9.77,4.11a4.25,4.25,0,0,0,3-1.24c2.48-2.47.83-5.7-1.08-9.44-.6-1.18-1.34-2.54-2.15-4a6.92,6.92,0,0,0,2.29-3.27L96.55,72h.36A7,7,0,0,0,103,68.52l13.31-21.65.08-.13a5.93,5.93,0,0,0,0-6,6,6,0,0,0-5.16-3,5.91,5.91,0,0,0-1.18.12l-14.6,2.86c1.13-2.39,2.2-5.19,0-7.34a4.28,4.28,0,0,0-3-1.23h0c-1,0-2.38,0-10.28,4.41-2.29,1.28-4.8,2.75-6.81,4l-5.84-5.84a7.66,7.66,0,0,0-10.86,0l-5.84,5.84c-2-1.23-4.52-2.7-6.81-4C38,32.2,36.63,32.2,35.63,32.2Z"/><path class="cls-3" d="M72.79,84H55.21v26.27a3,3,0,0,0,.87,2.12l6.51,6.5a2,2,0,0,0,2.82,0l6.51-6.5a3,3,0,0,0,.87-2.12Z"/><path class="cls-4" d="M75.38,104,64,95.26,52.62,104a2,2,0,0,1-3.22-1.59V63.06H78.6v39.35A2,2,0,0,1,75.38,104Z"/><polygon class="cls-5" points="57.43 100.31 64 95.26 70.57 100.31 70.57 63.06 57.43 63.06 57.43 100.31"/><path class="cls-2" d="M64,27.25c-3.43,0-6.67-.14-9.11-.39s-5.32-.54-5.48-2.7L47.92,14a2,2,0,0,1,.86-2,2,2,0,0,1,1.11-.34,2,2,0,0,1,1,.29l6,3.58,5.53-6.8a2,2,0,0,1,3.1,0l5.53,6.8,6-3.58a2,2,0,0,1,1-.29,2,2,0,0,1,1.11.34,2,2,0,0,1,.86,2L78.59,24.16c-.16,2.16-3,2.45-5.48,2.7S67.43,27.25,64,27.25Z"/><path class="cls-2" d="M64,10.07l6.62,8.13,7.49-4.47L76.59,24c0,.72-5.63,1.29-12.59,1.29S51.41,24.68,51.41,24L49.89,13.73l7.49,4.47L64,10.07m14.11,3.66h0M64,6.07a4,4,0,0,0-3.1,1.47L56.46,13,51.94,10.3a4,4,0,0,0-6,4l1.48,10c.28,3.79,4.63,4.23,7.27,4.5s5.81.4,9.31.4,6.8-.14,9.31-.4,7-.71,7.27-4.5L82,14.48a3.67,3.67,0,0,0,.07-.75,4,4,0,0,0-4-4h0a3.9,3.9,0,0,0-2.06.59L71.54,13,67.1,7.54A4,4,0,0,0,64,6.07Z"/><path class="cls-6" d="M90.68,77l3-9H34.33l3,9a3,3,0,0,0,2.84,2H87.84A3,3,0,0,0,90.68,77Z"/><path class="cls-7" d="M63.62,50.92,17.26,41.83a2,2,0,0,0-2.13,3L28.47,66.47A3,3,0,0,0,31.09,68H96.91a3,3,0,0,0,2.62-1.53l13.34-21.69a2,2,0,0,0-2.13-3L64.38,50.92A1.94,1.94,0,0,1,63.62,50.92Z"/><path class="cls-8" d="M45.38,54.89c-1.05-1-10.92-17.68-10-18.63S53,45.19,54,46.24s0,3.83-2.43,6.21S46.42,55.93,45.38,54.89Z"/><path class="cls-8" d="M44.94,64.66C44,64.12,33.73,54.11,34.23,53.25s14.3,3,15.25,3.56.7,2.75-.55,4.92S45.89,65.21,44.94,64.66Z"/><path class="cls-8" d="M78.52,56.81c1-.55,14.75-4.42,15.25-3.56S84,64.12,83.06,64.66s-2.73-.76-4-2.93S77.58,57.36,78.52,56.81Z"/><path class="cls-8" d="M74,46.24c1-1.05,17.68-10.93,18.63-10s-8.93,17.58-10,18.63-3.83,0-6.22-2.44S72.93,47.28,74,46.24Z"/><path class="cls-9" d="M87.17,58.14,66.6,37.58a3.67,3.67,0,0,0-5.2,0L40.83,58.14a3.69,3.69,0,0,0-1.08,2.61v6.5a3.69,3.69,0,0,0,1.08,2.61L61.4,90.42a3.67,3.67,0,0,0,5.2,0L87.17,69.86a3.69,3.69,0,0,0,1.08-2.61v-6.5A3.69,3.69,0,0,0,87.17,58.14Z"/><rect class="cls-10" x="45.78" y="42.52" width="36.45" height="36.45" rx="3.68" transform="translate(-24.21 63.05) rotate(-45)"/><path class="cls-8" d="M82.62,73.47c1,1,10.92,17.68,10,18.63S75,83.17,74,82.12s0-3.83,2.43-6.22S81.58,72.43,82.62,73.47Z"/><path class="cls-8" d="M54,82.12C53,83.17,36.35,93,35.4,92.1s8.93-17.58,10-18.63,3.83,0,6.22,2.43S55.07,81.08,54,82.12Z"/><path class="cls-7" d="M64,45a1.72,1.72,0,0,0-1.22.51l-14,14a1.72,1.72,0,0,0-.51,1.22H64Z"/><path class="cls-6" d="M48.26,60.75A1.68,1.68,0,0,0,48.77,62l14,14a1.71,1.71,0,0,0,1.22.5V60.75Z"/><path class="cls-11" d="M64,76.48a1.71,1.71,0,0,0,1.22-.5l14-14a1.68,1.68,0,0,0,.51-1.21H64Z"/><path class="cls-6" d="M65.22,45.52A1.72,1.72,0,0,0,64,45V60.75H79.74a1.72,1.72,0,0,0-.51-1.22Z"/><path class="cls-3" d="M73.31,16.59A26.3,26.3,0,0,1,71.18,25c3.27-.23,5.41-.62,5.41-1.06l1.52-10.23Z"/><path class="cls-3" d="M49.89,13.73,51.41,24c0,.44,2.14.83,5.41,1.06a26.3,26.3,0,0,1-2.13-8.43Z"/><path class="cls-4" d="M70.62,18.2,64,10.07,57.38,18.2l-2.69-1.61A26.3,26.3,0,0,0,56.82,25c2,.15,4.51.23,7.18.23s5.14-.08,7.18-.23a26.3,26.3,0,0,0,2.13-8.43Z"/></g></g></svg>