<svg xmlns="http://www.w3.org/2000/svg" viewBox="0 0 128 128"><defs><style>.cls-1{opacity:0;}.cls-2{fill:#1a1a1a;}.cls-3{fill:#8ba3b0;}.cls-4{fill:#bdccd4;}.cls-5{fill:#dde7ed;}</style></defs><title>diamond-silver-1</title><g id="Layer_2" data-name="Layer 2"><g id="Diamond"><g class="cls-1"><rect class="cls-2" width="128" height="128"/></g><path class="cls-2" d="M64,93.5a5.65,5.65,0,0,1-4-1.66L39.45,71.27a5.65,5.65,0,0,1-1.66-4v-6.5a5.65,5.65,0,0,1,1.66-4L60,36.16a5.69,5.69,0,0,1,8,0L88.62,56.73a5.65,5.65,0,0,1,1.66,4v6.5a5.65,5.65,0,0,1-1.66,4L68.05,91.84A5.64,5.64,0,0,1,64,93.5Z"/><path class="cls-2" d="M64,36.5a3.67,3.67,0,0,1,2.6,1.08L87.21,58.14a3.72,3.72,0,0,1,1.07,2.61v6.5a3.72,3.72,0,0,1-1.07,2.61L66.64,90.42a3.68,3.68,0,0,1-5.21,0L40.87,69.86a3.69,3.69,0,0,1-1.08-2.61v-6.5a3.69,3.69,0,0,1,1.08-2.61L61.43,37.58A3.67,3.67,0,0,1,64,36.5m0-4a7.64,7.64,0,0,0-5.44,2.25L38,55.32a7.63,7.63,0,0,0-2.25,5.43v6.5A7.63,7.63,0,0,0,38,72.68L58.6,93.25a7.69,7.69,0,0,0,10.87,0L90,72.68a7.63,7.63,0,0,0,2.25-5.43v-6.5A7.63,7.63,0,0,0,90,55.32L69.47,34.75A7.63,7.63,0,0,0,64,32.5Z"/><path class="cls-3" d="M87.21,58.14,66.64,37.58a3.68,3.68,0,0,0-5.21,0L40.87,58.14a3.69,3.69,0,0,0-1.08,2.61v6.5a3.69,3.69,0,0,0,1.08,2.61L61.43,90.42a3.68,3.68,0,0,0,5.21,0L87.21,69.86a3.72,3.72,0,0,0,1.07-2.61v-6.5A3.72,3.72,0,0,0,87.21,58.14Z"/><rect class="cls-4" x="45.81" y="42.52" width="36.45" height="36.45" rx="3.68" transform="translate(-24.2 63.07) rotate(-45)"/><rect class="cls-5" x="52.41" y="49.12" width="23.26" height="23.26" rx="1.72" transform="translate(-24.2 63.07) rotate(-45)"/></g></g></svg>