<svg xmlns="http://www.w3.org/2000/svg" viewBox="0 0 128 128"><defs><style>.cls-1{opacity:0;}.cls-2{fill:#1a1a1a;}.cls-3{fill:#324652;}</style></defs><title>diamond-unranked</title><g id="Layer_2" data-name="Layer 2"><g id="Display"><g class="cls-1"><rect class="cls-2" width="128" height="128"/></g><path class="cls-3" d="M64,90a5.66,5.66,0,0,1-4-1.67L39.45,67.77a5.7,5.7,0,0,1,0-8L60,39.16a5.69,5.69,0,0,1,8,0L88.62,59.73a5.7,5.7,0,0,1,0,8L68.05,88.33A5.65,5.65,0,0,1,64,90Z"/><path class="cls-2" d="M64,39.5a3.67,3.67,0,0,1,2.6,1.08L87.21,61.14a3.7,3.7,0,0,1,0,5.21L66.64,86.92a3.68,3.68,0,0,1-5.21,0L40.87,66.35a3.68,3.68,0,0,1,0-5.21L61.43,40.58A3.67,3.67,0,0,1,64,39.5m0-4a7.66,7.66,0,0,0-5.44,2.25L38,58.32a7.68,7.68,0,0,0,0,10.86L58.6,89.75a7.69,7.69,0,0,0,10.87,0L90,69.18a7.68,7.68,0,0,0,0-10.86L69.47,37.75A7.63,7.63,0,0,0,64,35.5Z"/></g></g></svg>